# xmcd
#
# Track frame offsets:
#	150
#	13905
#	26703
#	41574
#	53127
#	65705
#	75830
#	92990
#	111563
#	123692
#	134501
#
# Disc length: 1974 seconds
#
# Revision: 0
# Processed by: cddbd v1.5.2PL0 Copyright (c) Steve Scherf et al.
# Submitted via: audiograbber 1.83.01
#
DISCID=9e07b40b
DTITLE=Justin Booher - Songs a Cowboy Sings
DYEAR=2007
DGENRE=Country
TTITLE0=The Sunset Trail
TTITLE1=Big City
TTITLE2=Desperado
TTITLE3=The Lantern on the Wagon
TTITLE4=Ain't Misbehavin'
TTITLE5=Rio Grande Polka
TTITLE6=The Lights of Old Santa Fe
TTITLE7=He Is the One (Orig.)
TTITLE8=Cowtown
TTITLE9=Yellow Moon Over New Mexico (Orig.)
TTITLE10=The Master's Call
EXTD=Catalog #: 163497\nUPC:	 634479701177\nItem #:	 SRD970117
EXTT0=
EXTT1=
EXTT2=
EXTT3=
EXTT4=
EXTT5=
EXTT6=
EXTT7=
EXTT8=
EXTT9=
EXTT10=
PLAYORDER=
